<svg aria-hidden="true" style="position: absolute; width: 0; height: 0; overflow: hidden;" version="1.1" xmlns="http://www.w3.org/2000/svg" xmlns:xlink="http://www.w3.org/1999/xlink">
<defs>
<symbol id="icon-instagram" viewBox="0 0 32 32">
<path d="M21.18 4h-11.693c-3.765 0.004-6.816 3.055-6.82 6.82v11.694c0.004 3.765 3.055 6.816 6.82 6.82h11.694c3.765-0.005 6.815-3.055 6.82-6.82v-11.694c-0.005-3.765-3.055-6.815-6.82-6.82h-0zM15.333 22.513c-3.229 0-5.847-2.618-5.847-5.847s2.618-5.847 5.847-5.847v0c3.229 0 5.847 2.618 5.847 5.847s-2.618 5.847-5.847 5.847v0zM22.64 10.82c-0.807 0-1.461-0.654-1.461-1.461s0.654-1.461 1.461-1.461v0c0.807 0 1.461 0.654 1.461 1.461s-0.654 1.461-1.461 1.461v0zM19.232 16.667c0 2.152-1.745 3.897-3.897 3.897s-3.897-1.745-3.897-3.897v0c0-2.152 1.745-3.897 3.897-3.897s3.897 1.745 3.897 3.897v0z"></path>
</symbol>
<symbol id="icon-facebook" viewBox="0 0 32 32">
<path d="M29.333 16.033c0-7.379-5.973-13.367-13.333-13.367s-13.333 5.988-13.333 13.367c0 6.469 4.587 11.856 10.667 13.1v-9.089h-2.667v-4.011h2.667v-3.34c0-0 0-0.001 0-0.001 0-2.579 2.088-4.671 4.666-4.677h3.334v4.011h-2.667c-0.733 0-1.333 0.6-1.333 1.336v2.673h4v4.011h-4v9.288c6.733-0.668 12-6.363 12-13.3z"></path>
</symbol>
<symbol id="icon-youTube" viewBox="0 0 32 32">
<path d="M18.672 15.722l-3.744-1.747c-0.326-0.15-0.595 0.019-0.595 0.381v3.29c0 0.362 0.269 0.531 0.595 0.381l3.742-1.747c0.328-0.154 0.328-0.403 0-0.557zM16 0c-8.837 0-16 7.163-16 16s7.163 16 16 16 16-7.163 16-16-7.163-16-16-16zM16 22.501c-8.19 0-8.333-0.739-8.333-6.501s0.144-6.501 8.333-6.501c8.19 0 8.333 0.739 8.333 6.501s-0.144 6.501-8.333 6.501z"></path>
</symbol>
<symbol id="icon-close" viewBox="0 0 32 32">
<path d="M32 3.72l-3.72-3.72-12.28 12.28-12.28-12.28-3.72 3.72 12.28 12.28-12.28 12.28 3.72 3.72 12.28-12.28 12.28 12.28 3.72-3.72-12.28-12.28 12.28-12.28z"></path>
</symbol>
<symbol id="icon-open" viewBox="0 0 77 32">
<path stroke-linejoin="round" stroke-linecap="round" stroke-miterlimit="4" stroke-width="8" d="M4.8 27.2h67.2M4.8 4.8h67.2"></path>
</symbol>
</defs>
</svg>
